<svg xmlns="http://www.w3.org/2000/svg" width="592" height="592" viewBox="0 0 592 592"><path fill="#FFF" d="M0 0h592v592H0z"/><path d="M160 32h16v16h-16zM240 32h16v16h-16zM256 32h16v16h-16zM320 32h16v16h-16zM336 32h16v16h-16zM352 32h16v16h-16zM368 32h16v16h-16zM400 32h16v16h-16zM160 48h16v16h-16zM176 48h16v16h-16zM192 48h16v16h-16zM208 48h16v16h-16zM224 48h16v16h-16zM240 48h16v16h-16zM288 48h16v16h-16zM304 48h16v16h-16zM320 48h16v16h-16zM352 48h16v16h-16zM368 48h16v16h-16zM400 48h16v16h-16zM416 48h16v16h-16zM208 64h16v16h-16zM272 64h16v16h-16zM336 64h16v16h-16zM352 64h16v16h-16zM384 64h16v16h-16zM416 64h16v16h-16zM160 80h16v16h-16zM192 80h16v16h-16zM208 80h16v16h-16zM224 80h16v16h-16zM256 80h16v16h-16zM288 80h16v16h-16zM304 80h16v16h-16zM336 80h16v16h-16zM352 80h16v16h-16zM384 80h16v16h-16zM400 80h16v16h-16zM176 96h16v16h-16zM224 96h16v16h-16zM256 96h16v16h-16zM336 96h16v16h-16zM368 96h16v16h-16zM416 96h16v16h-16zM192 112h16v16h-16zM224 112h16v16h-16zM240 112h16v16h-16zM304 112h16v16h-16zM320 112h16v16h-16zM336 112h16v16h-16zM368 112h16v16h-16zM160 128h16v16h-16zM192 128h16v16h-16zM224 128h16v16h-16zM256 128h16v16h-16zM288 128h16v16h-16zM320 128h16v16h-16zM352 128h16v16h-16zM384 128h16v16h-16zM416 128h16v16h-16zM160 144h16v16h-16zM192 144h16v16h-16zM224 144h16v16h-16zM256 144h16v16h-16zM304 144h16v16h-16zM320 144h16v16h-16zM384 144h16v16h-16zM400 144h16v16h-16zM32 160h16v16H32zM64 160h16v16H64zM80 160h16v16H80zM112 160h16v16h-16zM128 160h16v16h-16zM144 160h16v16h-16zM192 160h16v16h-16zM208 160h16v16h-16zM288 160h16v16h-16zM304 160h16v16h-16zM320 160h16v16h-16zM336 160h16v16h-16zM368 160h16v16h-16zM400 160h16v16h-16zM448 160h16v16h-16zM496 160h16v16h-16zM528 160h16v16h-16zM544 160h16v16h-16zM64 176h16v16H64zM160 176h16v16h-16zM192 176h16v16h-16zM208 176h16v16h-16zM256 176h16v16h-16zM304 176h16v16h-16zM320 176h16v16h-16zM336 176h16v16h-16zM352 176h16v16h-16zM384 176h16v16h-16zM400 176h16v16h-16zM448 176h16v16h-16zM464 176h16v16h-16zM496 176h16v16h-16zM512 176h16v16h-16zM528 176h16v16h-16zM544 176h16v16h-16zM32 192h16v16H32zM48 192h16v16H48zM64 192h16v16H64zM80 192h16v16H80zM96 192h16v16H96zM112 192h16v16h-16zM128 192h16v16h-16zM176 192h16v16h-16zM192 192h16v16h-16zM208 192h16v16h-16zM256 192h16v16h-16zM288 192h16v16h-16zM304 192h16v16h-16zM352 192h16v16h-16zM368 192h16v16h-16zM384 192h16v16h-16zM400 192h16v16h-16zM416 192h16v16h-16zM432 192h16v16h-16zM448 192h16v16h-16zM464 192h16v16h-16zM480 192h16v16h-16zM496 192h16v16h-16zM544 192h16v16h-16zM48 208h16v16H48zM64 208h16v16H64zM96 208h16v16H96zM144 208h16v16h-16zM160 208h16v16h-16zM192 208h16v16h-16zM208 208h16v16h-16zM224 208h16v16h-16zM240 208h16v16h-16zM256 208h16v16h-16zM288 208h16v16h-16zM320 208h16v16h-16zM448 208h16v16h-16zM464 208h16v16h-16zM496 208h16v16h-16zM80 224h16v16H80zM128 224h16v16h-16zM144 224h16v16h-16zM160 224h16v16h-16zM176 224h16v16h-16zM208 224h16v16h-16zM224 224h16v16h-16zM272 224h16v16h-16zM304 224h16v16h-16zM352 224h16v16h-16zM384 224h16v16h-16zM400 224h16v16h-16zM416 224h16v16h-16zM432 224h16v16h-16zM464 224h16v16h-16zM480 224h16v16h-16zM496 224h16v16h-16zM48 240h16v16H48zM96 240h16v16H96zM112 240h16v16h-16zM176 240h16v16h-16zM208 240h16v16h-16zM224 240h16v16h-16zM240 240h16v16h-16zM288 240h16v16h-16zM304 240h16v16h-16zM336 240h16v16h-16zM416 240h16v16h-16zM464 240h16v16h-16zM496 240h16v16h-16zM528 240h16v16h-16zM48 256h16v16H48zM64 256h16v16H64zM112 256h16v16h-16zM128 256h16v16h-16zM144 256h16v16h-16zM224 256h16v16h-16zM240 256h16v16h-16zM272 256h16v16h-16zM288 256h16v16h-16zM304 256h16v16h-16zM320 256h16v16h-16zM336 256h16v16h-16zM352 256h16v16h-16zM368 256h16v16h-16zM416 256h16v16h-16zM448 256h16v16h-16zM464 256h16v16h-16zM496 256h16v16h-16zM32 272h16v16H32zM48 272h16v16H48zM64 272h16v16H64zM144 272h16v16h-16zM288 272h16v16h-16zM352 272h16v16h-16zM368 272h16v16h-16zM400 272h16v16h-16zM416 272h16v16h-16zM432 272h16v16h-16zM448 272h16v16h-16zM480 272h16v16h-16zM512 272h16v16h-16zM32 288h16v16H32zM128 288h16v16h-16zM144 288h16v16h-16zM160 288h16v16h-16zM192 288h16v16h-16zM256 288h16v16h-16zM272 288h16v16h-16zM288 288h16v16h-16zM352 288h16v16h-16zM368 288h16v16h-16zM400 288h16v16h-16zM416 288h16v16h-16zM432 288h16v16h-16zM448 288h16v16h-16zM480 288h16v16h-16zM496 288h16v16h-16zM512 288h16v16h-16zM32 304h16v16H32zM64 304h16v16H64zM112 304h16v16h-16zM144 304h16v16h-16zM224 304h16v16h-16zM240 304h16v16h-16zM272 304h16v16h-16zM288 304h16v16h-16zM304 304h16v16h-16zM352 304h16v16h-16zM368 304h16v16h-16zM384 304h16v16h-16zM400 304h16v16h-16zM416 304h16v16h-16zM432 304h16v16h-16zM448 304h16v16h-16zM480 304h16v16h-16zM496 304h16v16h-16zM544 304h16v16h-16zM32 320h16v16H32zM48 320h16v16H48zM80 320h16v16H80zM112 320h16v16h-16zM128 320h16v16h-16zM176 320h16v16h-16zM192 320h16v16h-16zM208 320h16v16h-16zM256 320h16v16h-16zM272 320h16v16h-16zM304 320h16v16h-16zM352 320h16v16h-16zM368 320h16v16h-16zM384 320h16v16h-16zM432 320h16v16h-16zM448 320h16v16h-16zM464 320h16v16h-16zM480 320h16v16h-16zM512 320h16v16h-16zM48 336h16v16H48zM80 336h16v16H80zM112 336h16v16h-16zM144 336h16v16h-16zM160 336h16v16h-16zM208 336h16v16h-16zM240 336h16v16h-16zM272 336h16v16h-16zM304 336h16v16h-16zM336 336h16v16h-16zM384 336h16v16h-16zM448 336h16v16h-16zM480 336h16v16h-16zM528 336h16v16h-16zM32 352h16v16H32zM64 352h16v16H64zM80 352h16v16H80zM96 352h16v16H96zM112 352h16v16h-16zM128 352h16v16h-16zM144 352h16v16h-16zM176 352h16v16h-16zM192 352h16v16h-16zM224 352h16v16h-16zM240 352h16v16h-16zM288 352h16v16h-16zM304 352h16v16h-16zM320 352h16v16h-16zM368 352h16v16h-16zM496 352h16v16h-16zM512 352h16v16h-16zM544 352h16v16h-16zM32 368h16v16H32zM80 368h16v16H80zM144 368h16v16h-16zM176 368h16v16h-16zM240 368h16v16h-16zM272 368h16v16h-16zM304 368h16v16h-16zM320 368h16v16h-16zM336 368h16v16h-16zM352 368h16v16h-16zM400 368h16v16h-16zM448 368h16v16h-16zM496 368h16v16h-16zM544 368h16v16h-16zM96 384h16v16H96zM128 384h16v16h-16zM176 384h16v16h-16zM192 384h16v16h-16zM208 384h16v16h-16zM256 384h16v16h-16zM288 384h16v16h-16zM320 384h16v16h-16zM368 384h16v16h-16zM384 384h16v16h-16zM400 384h16v16h-16zM416 384h16v16h-16zM432 384h16v16h-16zM448 384h16v16h-16zM464 384h16v16h-16zM480 384h16v16h-16zM512 384h16v16h-16zM528 384h16v16h-16zM544 384h16v16h-16zM48 400h16v16H48zM64 400h16v16H64zM80 400h16v16H80zM160 400h16v16h-16zM176 400h16v16h-16zM192 400h16v16h-16zM240 400h16v16h-16zM256 400h16v16h-16zM272 400h16v16h-16zM320 400h16v16h-16zM384 400h16v16h-16zM416 400h16v16h-16zM448 400h16v16h-16zM464 400h16v16h-16zM496 400h16v16h-16zM528 400h16v16h-16zM544 400h16v16h-16zM32 416h16v16H32zM112 416h16v16h-16zM128 416h16v16h-16zM144 416h16v16h-16zM192 416h16v16h-16zM208 416h16v16h-16zM240 416h16v16h-16zM256 416h16v16h-16zM288 416h16v16h-16zM304 416h16v16h-16zM320 416h16v16h-16zM384 416h16v16h-16zM400 416h16v16h-16zM416 416h16v16h-16zM432 416h16v16h-16zM448 416h16v16h-16zM464 416h16v16h-16zM480 416h16v16h-16zM544 416h16v16h-16zM160 432h16v16h-16zM176 432h16v16h-16zM192 432h16v16h-16zM208 432h16v16h-16zM240 432h16v16h-16zM256 432h16v16h-16zM272 432h16v16h-16zM304 432h16v16h-16zM320 432h16v16h-16zM336 432h16v16h-16zM352 432h16v16h-16zM384 432h16v16h-16zM416 432h16v16h-16zM480 432h16v16h-16zM496 432h16v16h-16zM160 448h16v16h-16zM224 448h16v16h-16zM240 448h16v16h-16zM256 448h16v16h-16zM288 448h16v16h-16zM304 448h16v16h-16zM320 448h16v16h-16zM336 448h16v16h-16zM352 448h16v16h-16zM400 448h16v16h-16zM416 448h16v16h-16zM448 448h16v16h-16zM480 448h16v16h-16zM528 448h16v16h-16zM160 464h16v16h-16zM176 464h16v16h-16zM240 464h16v16h-16zM256 464h16v16h-16zM272 464h16v16h-16zM352 464h16v16h-16zM368 464h16v16h-16zM384 464h16v16h-16zM400 464h16v16h-16zM416 464h16v16h-16zM480 464h16v16h-16zM496 464h16v16h-16zM512 464h16v16h-16zM544 464h16v16h-16zM192 480h16v16h-16zM320 480h16v16h-16zM368 480h16v16h-16zM400 480h16v16h-16zM416 480h16v16h-16zM432 480h16v16h-16zM448 480h16v16h-16zM464 480h16v16h-16zM480 480h16v16h-16zM512 480h16v16h-16zM528 480h16v16h-16zM544 480h16v16h-16zM160 496h16v16h-16zM176 496h16v16h-16zM192 496h16v16h-16zM224 496h16v16h-16zM256 496h16v16h-16zM272 496h16v16h-16zM288 496h16v16h-16zM320 496h16v16h-16zM352 496h16v16h-16zM384 496h16v16h-16zM400 496h16v16h-16zM464 496h16v16h-16zM496 496h16v16h-16zM544 496h16v16h-16zM160 512h16v16h-16zM224 512h16v16h-16zM256 512h16v16h-16zM272 512h16v16h-16zM288 512h16v16h-16zM304 512h16v16h-16zM320 512h16v16h-16zM352 512h16v16h-16zM416 512h16v16h-16zM448 512h16v16h-16zM464 512h16v16h-16zM496 512h16v16h-16zM208 528h16v16h-16zM256 528h16v16h-16zM272 528h16v16h-16zM304 528h16v16h-16zM400 528h16v16h-16zM416 528h16v16h-16zM432 528h16v16h-16zM448 528h16v16h-16zM464 528h16v16h-16zM480 528h16v16h-16zM544 528h16v16h-16zM160 544h16v16h-16zM176 544h16v16h-16zM256 544h16v16h-16zM304 544h16v16h-16zM352 544h16v16h-16zM368 544h16v16h-16zM480 544h16v16h-16zM512 544h16v16h-16z"/><path fill="none" d="M48.8 48.8h78.4v78.4H48.8z"/><path d="M127.2 32H32v112h112V32h-16.8zm0 95.2H48.8V48.8h78.4v78.4z"/><path fill="none" d="M464.8 48.8h78.4v78.4h-78.4z"/><path d="M543.2 32H448v112h112V32h-16.8zm0 95.2h-78.4V48.8h78.4v78.4z"/><path fill="none" d="M48.8 464.8h78.4v78.4H48.8z"/><path d="M127.2 448H32v112h112V448h-16.8zm0 95.2H48.8v-78.4h78.4v78.4z"/><g><path d="M64 64h48v48H64z"/></g><g><path d="M480 64h48v48h-48z"/></g><g><path d="M64 480h48v48H64z"/></g></svg>